<?xml version="1.0" encoding="UTF-8"?>
<svg version="1.1" viewBox="0 0 1400 500" xmlns="http://www.w3.org/2000/svg">
<path transform="translate(506,91)" d="m0 0c15.709-0.046984 31.418-0.082117 47.127-0.10362 7.2961-0.010257 14.592-0.02421 21.888-0.047255 6.3686-0.020106 12.737-0.032878 19.106-0.037298 3.3636-0.0025787 6.7271-0.0096148 10.091-0.023283 18.194-0.070922 36.455-0.10605 54.225 4.3365 1.2921 0.31868 1.2921 0.31868 2.6104 0.6438 26.243 6.8092 48.47 20.632 67.952 39.231 1.1911 1.1118 1.1911 1.1118 2.4062 2.2461 26.357 25.29 41.936 63.139 42.875 99.43 0.28283 14.264 0.2094 28.413-3.2812 42.324-0.16629 0.68981-0.33258 1.3796-0.50391 2.0903-9.0277 36.504-33.239 71.324-65.425 91.095-4.0505 2.391-8.1628 4.657-12.312 6.8706-1.4327 0.76947-2.8499 1.5676-4.2622 2.374-5.477 2.9981-11.305 5.0725-17.184 7.1328-1.1547 0.42177-1.1547 0.42177-2.3328 0.85205-19.824 6.6787-40.27 7.1612-60.966 6.991-3.638-0.025483-7.2761-0.027392-10.914-0.032102-6.8488-0.012295-13.697-0.044928-20.546-0.085398-7.8141-0.045145-15.628-0.066811-23.443-0.086782-16.037-0.041498-32.074-0.11158-48.111-0.20129v-4l3.375-1.375c3.587-1.3497 3.587-1.3497 5.625-3.625 0.30529-2.1629 0.30529-2.1629 0.25727-4.7015 0.0096733-1.4966 0.0096733-1.4966 0.019542-3.0235-0.0030972-1.1043-0.0061944-2.2085-0.0093855-3.3462 0.0067967-1.7502 0.0067967-1.7502 0.013731-3.5357 0.010505-3.2487 0.011964-6.4972 0.0096112-9.7458-4.0696e-4 -3.4997 0.010619-6.9995 0.020115-10.499 0.016637-6.8605 0.022111-13.721 0.023225-20.581 9.4921e-4 -5.5749 0.0050531-11.15 0.011401-16.725 0.01762-15.794 0.026838-31.589 0.025339-47.383-7.991e-5 -0.8521-1.5983e-4 -1.7042-2.4216e-4 -2.5821-8.176e-5 -0.85314-1.6352e-4 -1.7063-2.4776e-4 -2.5853-8.1306e-4 -13.829 0.018327-27.658 0.046524-41.487 0.028702-14.189 0.042542-28.377 0.040812-42.566-6.6484e-4 -7.9703 0.0048682-15.94 0.026356-23.911 0.018177-6.7859 0.022588-13.572 0.0089812-20.357-0.0065475-3.4638-0.0065836-6.9273 0.010706-10.391 0.015333-3.7516 0.0062229-7.5024-0.0092621-11.254 0.010287-1.0998 0.020574-2.1996 0.031173-3.3327-0.0091976-1.003-0.018395-2.006-0.027871-3.0393 4.3473e-4 -0.8662 8.6947e-4 -1.7324 0.0013174-2.6248-0.67097-3.1301-2.0643-4.3169-4.4991-6.3283-2.6322-1.2544-2.6322-1.2544-5-2l1-4zm65 5v296c55.13 2.9231 55.13 2.9231 100-20 0.89203-0.81082 1.7841-1.6216 2.7031-2.457 22.391-21.359 35.021-51.214 41.484-81.043 0.15501-0.71027 0.31002-1.4205 0.46973-2.1523 2.7833-13.607 3.7228-27.063 3.6553-40.91-0.0018228-0.78231-0.0036456-1.5646-0.0055237-2.3706-0.15491-39.7-9.9308-78.556-33.307-111.07-0.88559-1.251-0.88559-1.251-1.7891-2.5273-12.519-17.238-31.412-29.313-52.211-33.473h-61z"/>
<path transform="translate(12,91)" d="m0 0c17.473-0.070326 34.946-0.1231 52.419-0.15544 8.1146-0.015417 16.229-0.036407 24.344-0.070882 7.0791-0.030061 14.158-0.049294 21.237-0.055947 3.7425-0.0038842 7.4848-0.012903 11.227-0.034925 3.5352-0.02063 7.0701-0.026591 10.605-0.022133 1.8901-0.0011963 3.7802-0.017198 5.6702-0.033937 11.615 0.041119 23.543 1.4701 33.872 7.1233 1.0008 0.52715 1.0008 0.52715 2.0217 1.0649 15.733 8.4992 27.532 21.903 32.978 39.06 5.2999 18.388 3.4554 37.53-5.6914 54.387-9.2456 15.038-22.258 23.089-37.684 30.738 1.5797 0.49307 1.5797 0.49307 3.1914 0.99609 24.332 7.8947 42.729 22.521 54.984 45.293 10.547 20.699 11.759 45.192 4.7227 67.148-8.2675 22.616-23.715 40.889-45.52 51.352-10.694 4.7556-21.66 8.3417-33.453 8.3312-1.1946 0.0013747-2.3893 0.0027493-3.6201 0.0041656-1.9453-0.0053929-1.9453-0.0053929-3.9299-0.010895-1.39-2.823e-4 -2.7801-1.2329e-4 -4.1701 4.4251e-4 -3.7619 2.8628e-4 -7.5238-0.0055831-11.286-0.012574-3.9358-0.0062617-7.8716-0.0068396-11.807-0.0080254-7.4478-0.003105-14.896-0.011307-22.343-0.021349-8.4812-0.011187-16.962-0.016678-25.444-0.021695-17.442-0.010446-34.883-0.028029-52.325-0.050324l-1-4c0.83145-0.25523 0.83145-0.25523 1.6797-0.51562 0.72445-0.24234 1.4489-0.48469 2.1953-0.73438 0.7193-0.23203 1.4386-0.46406 2.1797-0.70312 2.5037-1.3474 2.8996-2.428 3.9453-5.0469 0.29833-2.3417 0.29833-2.3417 0.25448-4.8823 0.0058322-0.9872 0.011664-1.9744 0.017673-2.9915-0.0037793-1.0822-0.0075586-2.1644-0.011452-3.2793 0.0038256-1.1515 0.0076511-2.3029 0.011593-3.4892 0.0085425-3.1966 0.0080928-6.3931 0.0038194-9.5897-0.0024634-3.4472 0.0065421-6.8945 0.014037-10.342 0.01276-6.7536 0.014539-13.507 0.0122-20.261-0.0017818-5.4885-3.637e-5 -10.977 0.0042244-16.466 5.9519e-4 -0.78067 0.0011904-1.5613 0.0018036-2.3657 0.0012117-1.5858 0.0024259-3.1717 0.0036424-4.7575 0.01088-14.877 0.0087106-29.755 0.0026152-44.632-0.0051699-13.615 0.0060873-27.23 0.025098-40.845 0.019364-13.975 0.027637-27.95 0.023877-41.925-0.0019141-7.8478 5.9614e-4 -15.696 0.014715-23.543 0.011897-6.6807 0.013338-13.361 0.0012098-20.042-0.0059005-3.4092-0.006956-6.8183 0.0050024-10.228 0.010398-3.6941 0.0024224-7.3878-0.010311-11.082 0.0073743-1.08 0.014749-2.1599 0.022346-3.2726 0.013877-7.017 0.013877-7.017-3.3966-13.008-1.7658-1.1987-1.7658-1.1987-3.6875-1.8125l-3.3125-1.1875 1-4zm65 5v296c41.398 5.3457 41.398 5.3457 76.969-5.6133 22.13-24.558 21.134-64.5 20.031-95.387-1.2258-20.546-5.9999-47.32-21.812-61.875-3.957-3.2356-6.9424-4.2388-12.026-4.3303-0.98079-0.019945-1.9616-0.03989-2.9721-0.06044-1.0563-0.016712-2.1127-0.033425-3.201-0.050644-1.625-0.031172-1.625-0.031172-3.2829-0.062973-3.4642-0.065439-6.9285-0.12435-10.393-0.18312-2.347-0.043191-4.694-0.086805-7.041-0.13086-5.7571-0.10713-11.514-0.20891-17.271-0.30664v-2c0.57994 7.9559e-4 1.1599 0.0015912 1.7574 0.0024109 6.035 0.0024374 12.069-0.03672 18.103-0.10007 2.2522-0.018171 4.5045-0.025727 6.7568-0.022461 3.2377 0.0028539 6.4731-0.032429 9.7104-0.075195 1.0074 0.0090939 2.0148 0.018188 3.0528 0.027557 2.6729-0.0556 5.0308-0.16164 7.6191-0.83224 16.778-18.592 11.888-59.87 10.855-83.289-0.52636-8.7952-1.809-17.365-3.73-25.961-0.14921-0.66798-0.29842-1.336-0.45215-2.0242-1.2834-5.1842-3.1686-8.7173-5.6729-13.726h-67z"/>
<path transform="translate(903.73 90.648)" d="m0 0c0.70424-0.02424 1.4085-0.048481 2.1341-0.073456 6.5289-0.21213 13.06-0.33639 19.591-0.4343 4.3863-0.066878 8.7677-0.16213 13.151-0.32721 4.2422-0.15904 8.48-0.24271 12.725-0.27557 1.6104-0.025019 3.2206-0.075982 4.8292-0.15442 12.21-0.56804 12.21-0.56804 16.575 3.0619 3.2558 3.5557 5.7798 7.4992 8.1696 11.672 1.622 2.7967 3.4531 5.4256 5.2834 8.0899 0.63438 0.96502 1.2688 1.93 1.9224 2.9243 3.2163 4.8914 6.5275 9.7184 9.8237 14.556 1.1147 1.6376 2.2294 3.2752 3.3441 4.9128 1.1464 1.6841 2.293 3.3681 3.4396 5.052 2.9273 4.2996 5.8511 8.6017 8.7751 12.904 5.9947 8.8191 11.995 17.635 18.004 26.444 7.4586 10.935 14.902 21.88 22.343 32.827 3.5518 5.2248 7.1046 10.449 10.657 15.673 4.2739 6.2848 8.5476 12.57 12.82 18.855 3.5313 5.1948 7.0636 10.389 10.597 15.583 1.4019 2.0607 2.8036 4.1216 4.2051 6.1826 2.0418 3.002 4.0847 6.0033 6.1279 9.0044 0.60795 0.89421 1.2159 1.7884 1.8423 2.7097 0.57283 0.84087 1.1457 1.6817 1.7358 2.5481 0.49403 0.7259 0.98807 1.4518 1.4971 2.1997 1.4102 2.0355 2.8389 4.0545 4.2795 6.0686 0.44895 0.62787 0.8979 1.2557 1.3605 1.9026 0.34151 0.47727 0.68301 0.95453 1.0349 1.4463 0.070046-24.817 0.12297-49.634 0.15544-74.451 0.015476-11.523 0.03658-23.045 0.070882-34.568 0.029879-10.042 0.049251-20.084 0.055947-30.125 0.0039148-5.3183 0.013131-10.636 0.034925-15.955 0.020342-5.0043 0.026648-10.008 0.022133-15.013 8.2624e-4 -1.8378 0.0068057-3.6757 0.018293-5.5135 0.014908-2.5077 0.011344-5.0147 0.0031471-7.5224 0.0087385-0.72861 0.017477-1.4572 0.02648-2.2079-0.038794-4.3858-0.71098-7.1454-3.3872-10.644-1.7658-1.1987-1.7658-1.1987-3.6875-1.8125l-3.3125-1.1875 1-4h23l2 4c-0.83145 0.25523-0.83145 0.25523-1.6797 0.51562-0.72445 0.24234-1.4489 0.48469-2.1953 0.73438-0.7193 0.23203-1.4386 0.46406-2.1797 0.70312-2.5078 1.3496-2.9015 2.4205-3.9453 5.0469-0.30165 2.4235-0.30165 2.4235-0.26171 5.0681-0.0074655 1.0286-0.014931 2.0572-0.022623 3.117 0.0019347 1.1284 0.0038695 2.2568 0.0058628 3.4194-0.0086886 1.7998-0.0086886 1.7998-0.017553 3.6361-0.01408 3.3317-0.019232 6.6632-0.020649 9.9949-0.0036912 3.5924-0.018845 7.1847-0.032615 10.777-0.022286 6.2243-0.037291 12.449-0.047367 18.673-0.014579 8.9994-0.040113 17.999-0.068331 26.998-0.045482 14.6-0.082091 29.201-0.11314 43.801-0.03018 14.184-0.064527 28.368-0.10449 42.552-0.0024616 0.87414-0.0049231 1.7483-0.0074592 2.6489-0.012374 4.3853-0.024831 8.7705-0.037328 13.156-0.10359 36.386-0.19279 72.772-0.2726 109.16l-4 1c-15.668-22.404-15.668-22.404-21.935-31.885-4.3238-6.5317-8.727-13.009-13.128-19.49-0.40978-0.60359-0.81956-1.2072-1.2418-1.8291-4.3748-6.4436-8.7544-12.884-13.141-19.319-1.4142-2.0754-2.8283-4.151-4.2422-6.2266-0.69045-1.0134-1.3809-2.0269-2.0923-3.071-4.935-7.2566-9.8056-14.554-14.658-21.866-4.6002-6.9312-9.2591-13.796-14.139-20.533-3.1312-4.3328-6.1099-8.7556-9.0579-13.213-4.4251-6.6815-8.9257-13.311-13.428-19.941-0.41023-0.60411-0.82047-1.2082-1.2431-1.8306-6.4232-9.458-12.853-18.912-19.283-28.365-5.267-7.744-10.528-15.492-15.786-23.242-0.39476-0.58182-0.78951-1.1636-1.1962-1.7631-3.2126-4.735-6.4248-9.4703-9.637-14.206-2.4075-3.549-4.8152-7.098-7.223-10.647-0.79383-1.1701-1.5876-2.3401-2.3814-3.5103-4.2649-6.2868-8.5326-12.572-12.808-18.851-0.37625-0.55269-0.75249-1.1054-1.1401-1.6748-1.7599-2.5852-3.5203-5.1699-5.2822-7.7536-3.7664-5.5315-7.4992-11.084-11.208-16.654-0.45878-0.68859-0.91757-1.3772-1.3903-2.0866-1.1195-1.6804-2.2388-3.3609-3.358-5.0415-0.06864 35.84-0.12152 71.68-0.1532 107.52-0.0037522 4.2296-0.0076352 8.4591-0.011599 12.689-7.8693e-4 0.84204-0.0015739 1.6841-0.0023846 2.5516-0.01306 13.641-0.036717 27.282-0.064279 40.923-0.028037 13.993-0.044714 27.986-0.050807 41.979-0.00412 8.6371-0.017141 17.274-0.041484 25.911-0.015836 5.9197-0.020656 11.839-0.016755 17.759 0.0019248 3.4173-0.0010622 6.8344-0.017112 10.252-0.014863 3.7031-0.011359 7.4057-0.0031471 11.109-0.0087385 1.0827-0.017477 2.1654-0.02648 3.2809-0.025682 7.0276-0.025682 7.0276 3.3872 13.026 1.7658 1.1987 1.7658 1.1987 3.6875 1.8125l3.3125 1.1875-1 3h-24v-4c1.7578-0.65104 3.5156-1.3021 5.2734-1.9531 2.2772-1.3808 2.7323-2.5893 3.7266-5.0469 0.30143-2.3822 0.30143-2.3822 0.26171-4.9744 0.011198-1.5115 0.011198-1.5115 0.022623-3.0536-0.0019347-1.1051-0.0038695-2.2101-0.0058628-3.3486 0.0057924-1.1754 0.011585-2.3508 0.017553-3.5618 0.014078-3.2632 0.019231-6.5264 0.020649-9.7896 0.0036915-3.5187 0.018846-7.0374 0.032615-10.556 0.022285-6.0966 0.037291-12.193 0.047367-18.29 0.014579-8.8148 0.040114-17.629 0.068331-26.444 0.045481-14.301 0.082091-28.602 0.11314-42.903 0.03018-13.893 0.064528-27.786 0.10449-41.679 0.0024616-0.85622 0.0049231-1.7124 0.0074592-2.5946 0.012374-4.2953 0.024831-8.5907 0.037328-12.886 0.10359-35.64 0.19264-71.279 0.2726-106.92l-10-2-1-4c1.8959-1.8959 5.2048-1.2666 7.7319-1.3516z"/>
<path transform="translate(1150,91)" d="m0 0h73l1 4-5 1c0.10359 6.0081 1.3341 10.058 4.1289 15.391 2.5365 4.9258 4.9641 9.8772 7.2383 14.93 0.42088 0.9337 0.42088 0.9337 0.85027 1.8863 0.58347 1.297 1.1662 2.5944 1.7481 3.8921 5.701 12.703 11.56 25.325 17.534 37.901 5.8168 12.25 11.519 24.545 17.104 36.903 6.6712 14.759 13.512 29.436 20.396 44.097 2.6432-3.2257 4.2825-6.5412 5.9766-10.344 0.42332-0.94257 0.42332-0.94257 0.85519-1.9042 0.61267-1.3645 1.2233-2.73 1.8321-4.0963 1.6651-3.7345 3.3477-7.4609 5.0315-11.187 0.35157-0.77835 0.70314-1.5567 1.0654-2.3586 3.8132-8.4175 7.772-16.764 11.739-25.11 5.7766-12.162 11.433-24.371 16.973-36.642 5.622-12.447 11.404-24.814 17.25-37.157 1.7662-3.7302 3.5249-7.4638 5.2771-11.201 0.66334-1.4145 0.66334-1.4145 1.3401-2.8577 0.3673-0.80107 0.7346-1.6021 1.113-2.4275 0.45681-0.99205 0.45681-0.99205 0.92285-2.0042 0.78538-1.8673 0.78538-1.8673 0.68652-4.6482-0.93809-2.3128-0.93809-2.3128-3.625-3.375-1.2066-0.34031-1.2066-0.34031-2.4375-0.6875l2-4c3.625-0.028939 7.2499-0.046778 10.875-0.0625 1.5488-0.012568 1.5488-0.012568 3.1289-0.025391 0.98613-0.0032227 1.9723-0.0064453 2.9883-0.0097656 1.3668-0.0078552 1.3668-0.0078552 2.7612-0.015869 2.2466 0.11353 2.2466 0.11353 4.2466 1.1135l-1 4c-3.63 0.99-7.26 1.98-11 3v2h-2c-0.3756 0.97755-0.3756 0.97755-0.75879 1.9749-1.5857 3.8648-3.3391 7.6403-5.1006 11.427-0.38089 0.82153-0.76178 1.6431-1.1542 2.4895-1.2442 2.6825-2.4902 5.3641-3.7364 8.0457-0.86548 1.8648-1.7309 3.7296-2.5962 5.5945-5.5589 11.976-11.134 23.945-16.723 35.907-5.4592 11.686-10.89 23.384-16.318 35.085-1.6304 3.5135-3.2623 7.0264-4.8945 10.539-0.5497 1.1832-1.0994 2.3664-1.6658 3.5854-1.0123 2.1788-2.0248 4.3575-3.0376 6.5361-0.99501 2.1421-1.9754 4.291-2.9431 6.4456-1.535 3.3343-3.2422 6.5421-5.0011 9.7634-9.0068 17.076-10.736 31.227-10.313 50.314 0.023954 2.7534 0.030121 5.5067 0.037079 8.2602 0.023626 5.7094 0.09041 11.417 0.18997 17.125 0.14022 8.0448 0.19781 16.089 0.2408 24.134 0.036552 6.2851 0.095194 12.57 0.15715 18.855 0.0063429 0.66861 0.012686 1.3372 0.019221 2.0261 0.043416 4.4211 0.10706 8.8416 0.18049 13.262 0.011662 1.11 0.023324 2.22 0.035339 3.3637 0.020091 1.0211 0.040182 2.0421 0.060883 3.0941 0.013742 0.88341 0.027484 1.7668 0.041643 2.677 0.31513 2.8117 1.0368 4.958 2.2796 7.4948 1.9131 1.227 1.9131 1.227 4.125 1.8125 0.72445 0.23332 1.4489 0.46664 2.1953 0.70703 0.5543 0.15855 1.1086 0.31711 1.6797 0.48047l-1 4h-75v-4c0.5659-0.10957 1.1318-0.21914 1.7148-0.33203 1.1002-0.23783 1.1002-0.23783 2.2227-0.48047 0.7309-0.15082 1.4618-0.30164 2.2148-0.45703 0.60973-0.24105 1.2195-0.48211 1.8477-0.73047 0.97908-2.9373 1.1654-4.9724 1.2414-8.0404 0.041081-1.5646 0.041081-1.5646 0.082993-3.1608 0.037025-1.7177 0.037025-1.7177 0.074799-3.47 0.029059-1.2074 0.058119-2.4147 0.088058-3.6587 0.2564-11.265 0.4095-22.531 0.52752-33.797 0.080912-7.545 0.19516-15.086 0.39809-22.629 0.8866-33.634 1.3872-62.928-17.14-92.434-3.5856-5.8197-6.2205-12.107-8.9279-18.369-1.4596-3.3525-2.9768-6.679-4.4897-10.008-0.34342-0.7575-0.68685-1.515-1.0407-2.2954-3.908-8.5688-7.9576-17.071-12.002-25.576-5.1909-10.917-10.37-21.837-15.438-32.812-0.47873-1.0328-0.95745-2.0656-1.4507-3.1296-2.138-4.6361-4.2226-9.2825-6.186-13.995-0.35046-0.82983-0.70093-1.6597-1.062-2.5146-0.62678-1.4962-1.2384-2.9989-1.8291-4.5098-2.5219-6.0108-6.4742-9.8789-12.281-12.843-0.66129-0.20883-1.3226-0.41766-2.0039-0.63281l-3.5625-1.125 2-4z"/>
<path transform="translate(798,91)" d="m0 0h74l1 5-2.8125 0.8125c-3.0801 1.1475-4.2468 1.6562-6.1875 4.1875-0.44944 2.2617-0.44944 2.2617-0.37752 4.8273-0.011735 1.5006-0.011735 1.5006-0.023707 3.0314 0.0066922 1.102 0.013384 2.2041 0.020279 3.3395-0.00468 1.1683-0.0093599 2.3367-0.014182 3.5404-0.0099179 3.2484-0.0063184 6.4965 0.0029586 9.7448 0.0067709 3.5011-0.003681 7.0021-0.01194 10.503-0.013361 6.8607-0.010449 13.721-0.0017621 20.582 0.006767 5.5744 0.0076975 11.149 0.0044286 16.723-6.8954e-4 1.1887-6.8954e-4 1.1887-0.001393 2.4015-9.5915e-4 1.6098-0.0019318 3.2195-0.0029178 4.8293-0.0085607 15.105 0.0012909 30.21 0.017401 45.316 0.013404 12.969 0.011076 25.939-0.0027563 38.908-0.016044 15.05-0.022381 30.1-0.013163 45.15 9.5568e-4 1.6039 0.0018988 3.2079 0.0028292 4.8118 4.6283e-4 0.78923 9.2566e-4 1.5785 0.0014025 2.3916 0.0025935 5.5696-0.0017888 11.139-0.0088412 16.709-0.0084019 6.7847-0.0061625 13.569 0.0098422 20.354 0.0079005 3.4637 0.010944 6.9271 0.0010525 10.391-0.0081446 3.7496 0.0020207 7.4988 0.01704 11.248-0.0066922 1.102-0.013384 2.2041-0.020279 3.3395 0.0078232 1.0004 0.015646 2.0007 0.023707 3.0314 4.8705e-4 0.86603 9.7411e-4 1.7321 0.0014759 2.6243 0.46352 2.7154 1.204 3.5535 3.376 5.203 3.1001 1.2005 3.1001 1.2005 6 2v4h-75v-4c1.7578-0.65104 3.5156-1.3021 5.2734-1.9531 2.2753-1.3796 2.7317-2.5929 3.7266-5.0469 0.29833-2.3417 0.29833-2.3417 0.25448-4.8823 0.0058322-0.9872 0.011664-1.9744 0.017673-2.9915-0.0037793-1.0822-0.0075586-2.1644-0.011452-3.2793 0.0038256-1.1515 0.0076511-2.3029 0.011593-3.4892 0.0085425-3.1966 0.0080928-6.3931 0.0038194-9.5897-0.0024634-3.4472 0.0065421-6.8945 0.014037-10.342 0.01276-6.7536 0.014539-13.507 0.0122-20.261-0.0017818-5.4885-3.637e-5 -10.977 0.0042244-16.466 5.9519e-4 -0.78067 0.0011904-1.5613 0.0018036-2.3657 0.0012117-1.5858 0.0024259-3.1717 0.0036424-4.7575 0.01088-14.877 0.0087106-29.755 0.0026152-44.632-0.0051699-13.615 0.0060873-27.23 0.025098-40.845 0.019364-13.975 0.027637-27.95 0.023877-41.925-0.0019141-7.8478 5.9614e-4 -15.696 0.014715-23.543 0.011897-6.6807 0.013338-13.361 0.0012098-20.042-0.0059005-3.4092-0.006956-6.8183 0.0050024-10.228 0.010398-3.6941 0.0024224-7.3878-0.010311-11.082 0.0073743-1.08 0.014749-2.1599 0.022346-3.2726 0.013877-7.017 0.013877-7.017-3.3966-13.008-1.7658-1.1987-1.7658-1.1987-3.6875-1.8125l-3.3125-1.1875 1-4z"/>
<path transform="translate(366,92)" d="m0 0h3c11.32 32.36 22.615 64.725 33.418 97.263 6.6978 20.167 13.565 40.277 20.419 60.391 2.4172 7.093 4.8316 14.187 7.2458 21.281 1.652 4.8542 3.3044 9.7082 4.9578 14.562 3.3714 9.8976 6.7379 19.797 10.096 29.699 3.6312 10.706 7.2771 21.408 10.939 32.103 0.90972 2.6586 1.8175 5.3178 2.7251 7.9771 1.3829 4.047 2.777 8.0899 4.1805 12.13 0.50519 1.4586 1.007 2.9184 1.5051 4.3795 0.67725 1.984 1.3671 3.9631 2.0604 5.9415 0.37995 1.0991 0.7599 2.1982 1.1514 3.3306 1.7618 3.983 3.6763 7.1543 7.6611 9.0874 0.78891 0.22043 1.5778 0.44086 2.3906 0.66797 0.79922 0.23332 1.5984 0.46664 2.4219 0.70703 0.60328 0.15855 1.2066 0.31711 1.8281 0.48047l-1 4h-75l-1-3 7-4c0.44506-5.6778-1.1524-10.12-3.0273-15.379-0.30837-0.88969-0.61675-1.7794-0.93446-2.696-0.98322-2.8323-1.9788-5.6601-2.9757-8.4876-0.99125-2.8318-1.9798-5.6644-2.965-8.4983-0.61255-1.7599-1.229-3.5185-1.8497-5.2755-0.28021-0.80111-0.56043-1.6022-0.84914-2.4276-0.24649-0.69916-0.49298-1.3983-0.74693-2.1187-0.71649-2.3277-1.1741-4.7292-1.6517-7.1174l-110 1-14 42-1 2c-0.069505 1.5402-0.084524 3.0833-0.0625 4.625 0.0090234 0.81727 0.018047 1.6345 0.027344 2.4766 0.011602 0.62648 0.023203 1.253 0.035156 1.8984 1.98 0.33 3.96 0.66 6 1l-1 4h-24v-4c1.6602-0.35807 3.3203-0.71615 4.9805-1.0742 4.2149-1.9322 6.6289-5.0862 8.5515-9.2188 0.45627-1.2929 0.89635-2.5917 1.3235-3.8945 0.38223-1.1054 0.38223-1.1054 0.77219-2.2331 0.86761-2.5218 1.7135-5.0504 2.5598-7.5794 0.63026-1.8472 1.2617-3.6941 1.8943-5.5405 1.8792-5.5018 3.7366-11.011 5.5912-16.521 1.4428-4.2848 2.892-8.5673 4.3417-12.85 5.3528-15.814 10.696-31.63 16.026-47.452 4.8336-14.347 9.6813-28.689 14.584-43.012 0.26435-0.77233 0.5287-1.5447 0.80106-2.3404 1.0456-3.0546 2.0915-6.1091 3.1377-9.1634 3.148-9.1933 6.2762-18.393 9.4059-27.593 2.0303-5.9672 4.062-11.934 6.0935-17.901 1.5892-4.6679 3.1779-9.336 4.7654-14.004 6.4339-18.919 12.906-37.824 19.467-56.698 0.6742-1.94 1.3475-3.8804 2.0198-5.821 0.92949-2.6814 1.8628-5.3615 2.7973-8.0411 0.27846-0.80512 0.55692-1.6102 0.84381-2.4398 1.9283-5.5082 1.9283-5.5082 3.0429-6.6227zm-25 85c-0.40438 1.1977-0.40438 1.1977-0.81693 2.4195-23.012 68.151-23.012 68.151-30.808 90.955-0.2651 0.77577-0.53021 1.5515-0.80334 2.3508-2.8293 8.2781-5.6669 16.553-8.5107 24.826-1.3269 3.8619-2.6515 7.7246-3.9757 11.587-0.93838 2.734-1.8802 5.4668-2.8221 8.1996-0.56447 1.6459-1.1288 3.2919-1.6929 4.938-0.2617 0.75608-0.5234 1.5122-0.79303 2.2912-1.3174 3.6324-1.3174 3.6324-1.7773 7.4315h106c-7.3075-22.531-14.636-45.034-22.252-67.46-1.2806-3.7727-2.5592-7.5461-3.837-11.32-8.6068-25.417-17.244-50.824-25.911-76.22h-2z"/>
</svg>
